<svg width="568.3250366210938px" height="129.2px" xmlns="http://www.w3.org/2000/svg" viewBox="-34.162518310546886 10.400000000000006 568.3250366210938 129.2" style="background: rgb(40, 41, 47);" preserveAspectRatio="xMidYMid"><defs><linearGradient id="editing-outline-gradient" x1="0.7756373558169991" x2="0.22436264418300095" y1="-0.4612616959383189" y2="1.461261695938319"><stop offset="0" stop-color="#0a0a0a"></stop><stop offset="1" stop-color="#ffffff"></stop></linearGradient><filter id="editing-outline" x="-100%" y="-100%" width="300%" height="300%"><feMorphology in="SourceGraphic" operator="dilate" radius="3" result="outline"></feMorphology><feComposite operator="out" in="outline" in2="SourceAlpha"></feComposite></filter></defs><g filter="url(#editing-outline)"><g transform="translate(48.829993724823, 100.53000068664551)"><path d="M0.48-0.35L0.48-0.35L9.18-45.54L9.18-45.54Q17.32-46.23 22.56-46.23L22.56-46.23L22.56-46.23Q27.81-46.23 31.19-45.78L31.19-45.78L31.19-45.78Q34.57-45.33 36.85-44.16L36.85-44.16L36.85-44.16Q41.40-41.95 41.40-35.88L41.40-35.88L41.40-35.88Q41.40-32.36 38.36-29.39L38.36-29.39L38.36-29.39Q35.54-26.70 32.43-26.08L32.43-26.08L32.43-26.08Q35.74-25.53 38.09-23.05L38.09-23.05L38.09-23.05Q40.57-20.42 40.57-16.35L40.57-16.35L40.57-16.35Q40.57-8.49 34.71-3.90L34.71-3.90L34.71-3.90Q28.84 0.69 17.32 0.69L17.32 0.69L17.32 0.69Q9.38 0.69 0.48-0.35ZM19.25-22.22L15.80-4.35L15.80-4.35Q16.42-4.28 16.56-4.28L16.56-4.28L17.18-4.28L17.18-4.28Q22.84-4.28 25.25-8.00L25.25-8.00L25.25-8.00Q27.05-10.90 27.05-16.21L27.05-16.21L27.05-16.21Q27.05-19.04 25.22-20.56L25.22-20.56L25.22-20.56Q23.39-22.08 19.25-22.22L19.25-22.22ZM29.74-35.81L29.74-35.81L29.74-35.81Q29.74-41.54 24.22-41.54L24.22-41.54L23.60-41.54L23.60-41.54Q23.32-41.54 22.91-41.47L22.91-41.47L20.15-26.91L20.84-26.91L20.84-26.91Q29.74-27.12 29.74-35.81ZM75.07 1.38L75.07 1.38L75.07 1.38Q66.24 1.38 65.41-11.18L65.41-11.18L53.54-11.18L53.54-11.18Q52.16-8.00 51.20-5.24L51.20-5.24L49.40 0L39.74 0L61.48-45.54L76.31-45.54L79.21-12.01L79.21-12.01Q79.90-4.76 82.66-2.62L82.66-2.62L82.66-2.62Q80.66 1.38 75.07 1.38ZM59.48-24.98L55.68-16.21L65.21-16.21L64.38-33.95L64.38-35.81L59.48-24.98ZM85.97-0.35L85.97-0.35L94.67-45.54L94.67-45.54Q102.81-46.23 108.05-46.23L108.05-46.23L108.05-46.23Q113.30-46.23 116.68-45.78L116.68-45.78L116.68-45.78Q120.06-45.33 122.34-44.16L122.34-44.16L122.34-44.16Q126.89-41.95 126.89-35.88L126.89-35.88L126.89-35.88Q126.89-32.36 123.86-29.39L123.86-29.39L123.86-29.39Q121.03-26.70 117.92-26.08L117.92-26.08L117.92-26.08Q121.23-25.53 123.58-23.05L123.58-23.05L123.58-23.05Q126.06-20.42 126.06-16.35L126.06-16.35L126.06-16.35Q126.06-8.49 120.20-3.90L120.20-3.90L120.20-3.90Q114.33 0.69 102.81 0.69L102.81 0.69L102.81 0.69Q94.88 0.69 85.97-0.35ZM104.74-22.22L101.29-4.35L101.29-4.35Q101.91-4.28 102.05-4.28L102.05-4.28L102.67-4.28L102.67-4.28Q108.33-4.28 110.75-8.00L110.75-8.00L110.75-8.00Q112.54-10.90 112.54-16.21L112.54-16.21L112.54-16.21Q112.54-19.04 110.71-20.56L110.71-20.56L110.71-20.56Q108.88-22.08 104.74-22.22L104.74-22.22ZM115.23-35.81L115.23-35.81L115.23-35.81Q115.23-41.54 109.71-41.54L109.71-41.54L109.09-41.54L109.09-41.54Q108.81-41.54 108.40-41.47L108.40-41.47L105.64-26.91L106.33-26.91L106.33-26.91Q115.23-27.12 115.23-35.81ZM160.56 1.38L160.56 1.38L160.56 1.38Q151.73 1.38 150.90-11.18L150.90-11.18L139.04-11.18L139.04-11.18Q137.66-8.00 136.69-5.24L136.69-5.24L134.90 0L125.24 0L146.97-45.54L161.81-45.54L164.70-12.01L164.70-12.01Q165.39-4.76 168.15-2.62L168.15-2.62L168.15-2.62Q166.15 1.38 160.56 1.38ZM144.97-24.98L141.17-16.21L150.70-16.21L149.87-33.95L149.87-35.81L144.97-24.98ZM185.68-0.35L185.68-0.35L194.37-45.54L194.37-45.54Q202.52-46.23 207.76-46.23L207.76-46.23L207.76-46.23Q213.00-46.23 216.38-45.78L216.38-45.78L216.38-45.78Q219.77-45.33 222.04-44.16L222.04-44.16L222.04-44.16Q226.60-41.95 226.60-35.88L226.60-35.88L226.60-35.88Q226.60-32.36 223.56-29.39L223.56-29.39L223.56-29.39Q220.73-26.70 217.63-26.08L217.63-26.08L217.63-26.08Q220.94-25.53 223.28-23.05L223.28-23.05L223.28-23.05Q225.77-20.42 225.77-16.35L225.77-16.35L225.77-16.35Q225.77-8.49 219.90-3.90L219.90-3.90L219.90-3.90Q214.04 0.69 202.52 0.69L202.52 0.69L202.52 0.69Q194.58 0.69 185.68-0.35ZM204.45-22.22L201.00-4.35L201.00-4.35Q201.62-4.28 201.76-4.28L201.76-4.28L202.38-4.28L202.38-4.28Q208.04-4.28 210.45-8.00L210.45-8.00L210.45-8.00Q212.24-10.90 212.24-16.21L212.24-16.21L212.24-16.21Q212.24-19.04 210.42-20.56L210.42-20.56L210.42-20.56Q208.59-22.08 204.45-22.22L204.45-22.22ZM214.94-35.81L214.94-35.81L214.94-35.81Q214.94-41.54 209.42-41.54L209.42-41.54L208.79-41.54L208.79-41.54Q208.52-41.54 208.10-41.47L208.10-41.47L205.34-26.91L206.03-26.91L206.03-26.91Q214.94-27.12 214.94-35.81ZM246.81-3.80L246.81-3.80L246.81-3.80Q244.67 1.38 237.84 1.38L237.84 1.38L237.84 1.38Q234.39 1.38 232.19-1.04L232.19-1.04L232.19-1.04Q230.39-3.04 230.39-5.31L230.39-5.31L230.39-5.31Q230.39-10.49 232.81-21.80L232.81-21.80L237.84-48.30L251.85-49.68L245.16-14.77L245.16-14.77Q243.98-9.66 243.98-7.87L243.98-7.87L243.98-7.87Q243.98-3.93 246.81-3.80ZM267.72 1.38L267.72 1.38L267.72 1.38Q252.54 1.38 252.54-12.90L252.54-12.90L252.54-12.90Q252.54-23.05 258.13-29.60L258.13-29.60L258.13-29.60Q264.06-36.57 274.34-36.57L274.34-36.57L274.34-36.57Q281.80-36.57 285.59-33.12L285.59-33.12L285.59-33.12Q289.39-29.67 289.39-22.43L289.39-22.43L289.39-22.43Q289.39-11.39 283.45-4.97L283.45-4.97L283.45-4.97Q277.66 1.38 267.72 1.38ZM269.51-28.64L269.51-28.64L269.51-28.64Q268.69-26.77 268.03-23.98L268.03-23.98L268.03-23.98Q267.38-21.18 266.55-16.77L266.55-16.77L266.55-16.77Q265.72-12.35 265.72-6.90L265.72-6.90L265.72-6.90Q265.72-5.11 266.31-3.93L266.31-3.93L266.31-3.93Q266.89-2.76 268.48-2.76L268.48-2.76L268.48-2.76Q270.07-2.76 271.07-3.52L271.07-3.52L271.07-3.52Q272.07-4.28 272.83-6.07L272.83-6.07L272.83-6.07Q274.21-9.25 275.31-15.15L275.31-15.15L275.31-15.15Q276.41-21.05 276.52-23.60L276.52-23.60L276.52-23.60Q276.62-26.15 276.62-28.05L276.62-28.05L276.62-28.05Q276.62-29.95 276.07-31.19L276.07-31.19L276.07-31.19Q275.52-32.43 273.96-32.43L273.96-32.43L273.96-32.43Q272.41-32.43 271.38-31.46L271.38-31.46L271.38-31.46Q270.34-30.50 269.51-28.64ZM327.34-28.70L327.34-28.70L327.34-28.70Q327.34-25.81 324.92-24.01L324.92-24.01L324.92-24.01Q322.51-22.22 318.57-22.22L318.57-22.22L318.57-22.22Q316.92-22.22 315.95-22.70L315.95-22.70L315.95-22.70Q316.71-24.50 316.95-26.74L316.95-26.74L316.95-26.74Q317.19-28.98 317.19-29.60L317.19-29.60L317.19-29.60Q317.19-32.50 315.19-32.50L315.19-32.50L315.19-32.50Q313.81-32.50 312.26-30.77L312.26-30.77L312.26-30.77Q310.71-29.05 309.40-26.36L309.40-26.36L309.40-26.36Q306.50-20.15 306.50-13.87L306.50-13.87L306.50-13.87Q306.50-10.42 307.81-8.87L307.81-8.87L307.81-8.87Q309.12-7.31 312.02-7.31L312.02-7.31L312.02-7.31Q316.02-7.31 319.19-10.63L319.19-10.63L319.19-10.63Q320.09-11.66 320.57-12.83L320.57-12.83L320.57-12.83Q323.20-11.45 323.20-7.66L323.20-7.66L323.20-7.66Q323.20-3.80 318.92-1.24L318.92-1.24L318.92-1.24Q314.50 1.38 307.46 1.38L307.46 1.38L307.46 1.38Q293.46 1.38 293.46-13.46L293.46-13.46L293.46-13.46Q293.46-24.29 299.60-30.50L299.60-30.50L299.60-30.50Q305.53-36.57 316.43-36.57L316.43-36.57L316.43-36.57Q327.34-36.57 327.34-28.70ZM347.00-32.71L347.00-32.71L347.00-32.71Q350.73-36.57 358.59-36.57L358.59-36.57L358.59-36.57Q362.94-36.57 365.32-34.26L365.32-34.26L365.32-34.26Q367.70-31.95 367.70-27.70L367.70-27.70L367.70-27.70Q367.70-23.46 365.32-20.46L365.32-20.46L365.32-20.46Q362.94-17.46 358.52-16.21L358.52-16.21L358.52-16.21Q358.87-14.84 359.35-13.39L359.35-13.39L360.32-10.63L360.32-10.63Q361.63-7.11 362.66-5.87L362.66-5.87L362.66-5.87Q363.70-4.62 365.08-4.21L365.08-4.21L365.08-4.21Q364.32-1.38 361.56 0.14L361.56 0.14L361.56 0.14Q359.35 1.38 356.32 1.38L356.32 1.38L356.32 1.38Q347.42 1.38 346.24-12.35L346.24-12.35L346.24-12.35Q346.04-14.28 346.04-16.21L346.04-16.21L346.04-16.21Q349.49-17.18 351.90-20.42L351.90-20.42L351.90-20.42Q354.32-23.67 354.32-27.46L354.32-27.46L354.32-27.46Q354.32-31.26 351.62-31.26L351.62-31.26L351.62-31.26Q349.69-31.26 348.17-29.12L348.17-29.12L348.17-29.12Q346.66-26.98 345.97-23.32L345.97-23.32L341.41 0L327.47 1.38L337.13-48.30L351.00-49.68L349.42-41.47L349.42-41.47Q348.38-35.67 347.00-32.71ZM391.51-24.22L391.51-24.22L391.51-24.22Q392.47-26.77 392.47-28.98L392.47-28.98L392.47-28.98Q392.47-33.05 389.16-33.05L389.16-33.05L389.16-33.05Q387.44-33.05 386.02-31.50L386.02-31.50L386.02-31.50Q384.61-29.95 384.61-28.01L384.61-28.01L384.61-28.01Q384.61-26.63 385.71-25.53L385.71-25.53L385.71-25.53Q387.30-24.01 391.37-21.53L391.37-21.53L391.37-21.53Q395.44-19.04 396.99-17.01L396.99-17.01L396.99-17.01Q398.54-14.97 398.54-12.18L398.54-12.18L398.54-12.18Q398.54-9.38 397.20-6.83L397.20-6.83L397.20-6.83Q395.85-4.28 393.44-2.48L393.44-2.48L393.44-2.48Q388.26 1.38 379.98 1.38L379.98 1.38L379.98 1.38Q375.50 1.38 372.05-0.97L372.05-0.97L372.05-0.97Q368.60-3.24 368.60-5.93L368.60-5.93L368.60-5.93Q368.60-8.63 370.56-10.21L370.56-10.21L370.56-10.21Q372.53-11.80 375.43-11.80L375.43-11.80L375.43-11.80Q378.33-11.80 380.12-10.70L380.12-10.70L380.12-10.70Q379.22-8.42 379.22-6.90L379.22-6.90L379.22-6.90Q379.22-2.35 383.09-2.35L383.09-2.35L383.09-2.35Q384.74-2.35 385.85-3.38L385.85-3.38L385.85-3.38Q386.95-4.42 386.95-6.21L386.95-6.21L386.95-6.21Q386.95-9.73 381.02-13.46L381.02-13.46L381.02-13.46Q376.19-16.63 375.08-17.87L375.08-17.87L375.08-17.87Q373.22-20.08 373.22-22.84L373.22-22.84L373.22-22.84Q373.22-25.60 374.53-28.22L374.53-28.22L374.53-28.22Q375.84-30.84 378.26-32.71L378.26-32.71L378.26-32.71Q383.30-36.57 392.06-36.57L392.06-36.57L392.06-36.57Q396.54-36.57 399.20-34.78L399.20-34.78L399.20-34.78Q401.86-32.98 401.86-29.95L401.86-29.95L401.86-29.95Q401.86-26.91 400.03-25.19L400.03-25.19L400.03-25.19Q398.20-23.46 394.89-23.46L394.89-23.46L394.89-23.46Q392.61-23.46 391.51-24.22Z" fill="url(#editing-outline-gradient)"></path></g></g><style>text {
  font-size: 64px;
  font-family: Arial Black;
  dominant-baseline: central;
  text-anchor: middle;
}</style></svg>